
<?xml version="1.0" encoding="utf-8"?>
<!-- Generator: Adobe Illustrator 19.0.0, SVG Export Plug-In . SVG Version: 6.00 Build 0)  -->
<svg version="1.1" id="Layer_1" xmlns="http://www.w3.org/2000/svg" xmlns:xlink="http://www.w3.org/1999/xlink" x="0px" y="0px"
	 width="1224px" height="792px" viewBox="0 0 1224 792" style="enable-background:new 0 0 1224 792;" xml:space="preserve">
<style type="text/css">
	.st0{fill:#FF9900;}
	.st1{fill:#00AFE9;}
	.st2{fill-rule:evenodd;clip-rule:evenodd;fill:#FF9900;}
</style>
<path class="st0" d="M357.9,354.7c4.1,0,8.1,0.8,11.8,2.4c3.7,1.6,7,3.8,9.8,6.6c2.8,2.8,5,6,6.7,9.8c1.6,3.7,2.5,7.7,2.5,12
	c0,4.2-0.8,8.2-2.4,11.8c-1.6,3.7-3.8,6.9-6.5,9.7c-2.7,2.8-6,5-9.7,6.6c-3.7,1.6-7.7,2.4-12,2.4c-4.2,0-8.2-0.8-11.9-2.3
	c-3.7-1.5-7-3.7-9.8-6.4c-2.8-2.7-5-6-6.6-9.7c-1.6-3.7-2.4-7.8-2.4-12.2c0-4.2,0.8-8.2,2.3-11.9c1.6-3.7,3.7-6.9,6.5-9.6
	c2.7-2.7,6-4.9,9.8-6.6C349.6,355.8,353.6,354.9,357.9,354.7z M357.9,371.3c-1.9,0-3.8,0.4-5.4,1.1c-1.7,0.7-3.2,1.7-4.5,3
	c-1.3,1.3-2.3,2.8-3.1,4.5c-0.8,1.7-1.1,3.6-1.1,5.6c0,1.9,0.4,3.8,1.1,5.5c0.8,1.7,1.8,3.3,3.1,4.6c1.3,1.3,2.8,2.3,4.5,3.1
	c1.7,0.8,3.5,1.1,5.4,1.1c1.9,0,3.8-0.4,5.5-1.1c1.7-0.8,3.2-1.8,4.5-3.1c1.3-1.3,2.3-2.8,3-4.6c0.8-1.7,1.1-3.6,1.1-5.5
	c-0.2-3.9-1.6-7.2-4.2-9.9C365.3,373,362,371.5,357.9,371.3z"/>
<path class="st0" d="M405.2,354.7c2.2,0,4.1,0.8,5.8,2.5c1.7,1.6,2.5,3.7,2.5,6v22.3c0,1.9,0.4,3.8,1.1,5.5c0.8,1.7,1.8,3.2,3,4.5
	c1.3,1.3,2.8,2.3,4.5,3c1.7,0.8,3.6,1.1,5.5,1.1c1.9,0,3.6-0.3,5.3-1c1.7-0.7,3.2-1.6,4.5-2.8c1.3-1.2,2.3-2.6,3.1-4.3
	c0.8-1.7,1.1-3.5,1.1-5.4v-23.1c0-2.1,0.8-4,2.4-5.7c1.6-1.7,3.5-2.6,5.8-2.7c2.3,0,4.2,0.8,5.9,2.5c1.6,1.6,2.5,3.5,2.6,5.5v22.8
	c0,4.2-0.8,8.2-2.4,11.9c-1.6,3.7-3.8,7-6.6,9.8c-2.8,2.8-6,5-9.8,6.6c-3.7,1.6-7.7,2.4-12,2.4c-4.1,0.2-7.9-0.5-11.7-2.1
	c-3.7-1.6-7-3.7-9.8-6.5c-2.8-2.7-5.1-6-6.8-9.6c-1.7-3.7-2.5-7.5-2.5-11.6v-23.3c0-2.2,0.8-4.1,2.3-5.8
	C400.9,355.7,402.8,354.8,405.2,354.7z"/>
<path class="st0" d="M498.5,354.5c4.1,0,7.9,0.7,11.7,2.2c3.7,1.5,7,3.5,9.8,6.2c2.8,2.7,5,5.8,6.7,9.4c1.7,3.6,2.5,7.6,2.5,11.8
	v23.4c0,2.2-0.8,4.1-2.3,5.7c-1.6,1.6-3.5,2.5-5.8,2.5c-2.3,0-4.2-0.7-5.9-2.2c-1.6-1.5-2.5-3.4-2.5-5.6v-22.8
	c0-1.9-0.4-3.8-1.1-5.5c-0.7-1.7-1.7-3.2-3-4.5c-1.3-1.3-2.8-2.3-4.6-3c-1.7-0.8-3.6-1.1-5.6-1.1c-1.9,0-3.6,0.4-5.3,1.1
	c-1.7,0.7-3.2,1.7-4.4,2.9c-1.3,1.2-2.3,2.6-3,4.3c-0.8,1.7-1.1,3.5-1.1,5.3v23.1c0,2.2-0.8,4.1-2.5,5.8c-1.7,1.6-3.6,2.5-5.8,2.5
	c-2.2,0-4.1-0.8-5.8-2.3c-1.7-1.5-2.5-3.4-2.5-5.6v-22.8c0.1-4.2,0.9-8.2,2.5-11.9c1.6-3.7,3.7-7,6.5-9.8c2.7-2.8,6-5,9.7-6.6
	C490,355.3,494.1,354.5,498.5,354.5z"/>
<path class="st0" d="M568.2,354.9c8.4,0,15.6,3,21.5,8.9c1.4,1.6,2.1,3.5,2,5.7c-0.1,2.2-1,4-2.5,5.4c-1.5,1.4-3.5,2.2-5.8,2.3
	c-2.4,0.1-4.3-0.7-5.8-2.3c-2.6-2.4-5.7-3.5-9.4-3.5c-1.9,0-3.8,0.4-5.5,1.2c-1.7,0.8-3.3,1.9-4.6,3.2c-1.3,1.3-2.3,2.8-3.1,4.5
	c-0.8,1.7-1.1,3.5-1.1,5.3c0,1.9,0.4,3.8,1.1,5.5c0.8,1.7,1.8,3.3,3.2,4.6c1.4,1.3,2.9,2.3,4.6,3.1c1.7,0.8,3.5,1.1,5.4,1
	c3.7,0,6.8-1.1,9.4-3.4c1.5-1.7,3.5-2.5,5.8-2.5c2.4,0,4.3,0.8,5.8,2.5c0.8,0.7,1.4,1.5,1.8,2.4c0.4,0.9,0.7,1.9,0.7,2.9
	c0,1-0.1,2-0.4,3c-0.3,1-0.8,1.8-1.5,2.6c-3,3-6.2,5.2-9.8,6.7c-3.5,1.5-7.5,2.3-11.8,2.3c-4.2,0-8.2-0.8-11.9-2.5
	c-3.7-1.6-7-3.9-9.8-6.7c-2.8-2.8-5-6-6.7-9.8c-1.6-3.7-2.5-7.6-2.5-11.8c0-4.1,0.8-7.9,2.5-11.7c1.6-3.7,3.9-7,6.7-9.8
	c2.8-2.8,6.1-5,9.8-6.7C560.1,355.7,564,354.9,568.2,354.9z"/>
<path class="st1" d="M694,354.9c8.4,0,15.6,3,21.5,8.9c1.4,1.6,2.1,3.5,2,5.7c-0.1,2.2-1,4-2.5,5.4c-1.5,1.4-3.5,2.2-5.8,2.3
	c-2.4,0.1-4.3-0.7-5.8-2.3c-2.6-2.4-5.7-3.5-9.4-3.5c-1.9,0-3.8,0.4-5.5,1.2c-1.7,0.8-3.3,1.9-4.6,3.2c-1.3,1.3-2.3,2.8-3.1,4.5
	c-0.8,1.7-1.1,3.5-1.1,5.3c0,1.9,0.4,3.8,1.1,5.5c0.8,1.7,1.8,3.3,3.2,4.6c1.3,1.3,2.9,2.3,4.6,3.1c1.7,0.8,3.5,1.1,5.4,1
	c3.7,0,6.8-1.1,9.4-3.4c1.5-1.7,3.5-2.5,5.8-2.5c2.4,0,4.3,0.8,5.8,2.5c0.8,0.7,1.3,1.5,1.8,2.4c0.4,0.9,0.7,1.9,0.7,2.9
	c0,1-0.1,2-0.4,3c-0.3,1-0.8,1.8-1.5,2.6c-3,3-6.2,5.2-9.8,6.7c-3.5,1.5-7.5,2.3-11.8,2.3c-4.2,0-8.2-0.8-11.9-2.5
	c-3.7-1.6-7-3.9-9.8-6.7c-2.8-2.8-5-6-6.7-9.8c-1.6-3.7-2.5-7.6-2.5-11.8c0-4.1,0.8-7.9,2.5-11.7c1.6-3.7,3.9-7,6.7-9.8
	c2.8-2.8,6.1-5,9.8-6.7C686,355.7,689.9,354.9,694,354.9z"/>
<path class="st1" d="M735.2,335.7c2.2,0,4.1,0.8,5.6,2.3c1.6,1.5,2.4,3.5,2.6,6v14.6c1.9-1.3,4.2-2.2,6.8-2.7
	c2.6-0.5,5.1-0.8,7.5-0.8c4.1,0,8.1,0.8,11.8,2.3c3.7,1.5,7,3.6,9.8,6.3c2.8,2.7,5,5.9,6.7,9.5c1.6,3.6,2.5,7.5,2.5,11.7v23.2
	c0,2.3-0.8,4.2-2.3,5.8c-1.6,1.6-3.5,2.4-5.9,2.5c-2.2,0-4.1-0.7-5.6-2.2c-1.5-1.5-2.5-3.4-2.8-5.6v-22.8c0-1.9-0.4-3.7-1.1-5.4
	c-0.7-1.7-1.7-3.3-3-4.6c-1.3-1.3-2.7-2.3-4.4-3.1c-1.7-0.8-3.5-1.1-5.6-1.1c-3.8,0-7,1.3-9.7,3.9c-2.7,2.6-4.2,5.8-4.6,9.6v22.9
	c0,2.3-0.8,4.2-2.3,5.8c-1.6,1.6-3.5,2.4-5.9,2.5c-2.1,0-3.9-0.7-5.4-2.2c-1.5-1.5-2.4-3.4-2.9-5.6v-65.1c0.2-2.1,1-3.9,2.5-5.4
	C730.9,336.5,732.8,335.7,735.2,335.7z"/>
<path class="st1" d="M829.2,355c3.8,0.4,7.4,1.5,10.7,3.3c3.3,1.8,6.2,4,8.6,6.8c2.4,2.7,4.3,5.9,5.7,9.4c1.4,3.5,2.1,7.2,2.1,11.1
	V408c0,2.3-0.8,4.2-2.5,5.8c-1.7,1.6-3.6,2.4-5.7,2.4c-3,0-5.3-1.4-7.1-4.1c-0.4,0.2-0.8,0.4-1.1,0.6c-0.3,0.2-0.7,0.4-1,0.6
	c-2,0.9-4.1,1.6-6.2,2.2c-2.2,0.5-4.5,0.8-7,0.8c-6.3,0-12-1.7-17-5.1c-5-3.4-8.7-7.8-11.2-13.2c-0.8-1.9-1.5-3.9-2-6
	c-0.5-2-0.7-4.1-0.7-6.3c0-2.2,0.2-4.3,0.7-6.3c0.5-2,1.1-4,2-6c2.4-5.5,6.2-9.9,11.2-13.3c5-3.4,10.6-5.1,17-5.1c0.7,0,1.3,0,1.8,0
	C828.1,354.9,828.6,354.9,829.2,355z M825.6,399.7c1.9,0,3.8-0.4,5.5-1.1c1.7-0.7,3.2-1.7,4.5-3c1.3-1.3,2.3-2.8,3-4.5
	c0.8-1.7,1.1-3.6,1.1-5.6c0-1.9-0.4-3.7-1.1-5.4c-0.8-1.7-1.8-3.3-3.1-4.6c-1.3-1.3-2.8-2.3-4.6-3.1c-1.7-0.8-3.5-1.1-5.4-1.1
	c-1.9,0-3.6,0.4-5.3,1.1c-1.7,0.8-3.2,1.8-4.5,3.1c-1.3,1.3-2.3,2.8-3.1,4.6c-0.8,1.7-1.1,3.5-1.1,5.4c0,1.9,0.4,3.8,1.2,5.5
	c0.8,1.7,1.9,3.2,3.2,4.5c1.3,1.3,2.8,2.3,4.5,3C822.1,399.4,823.8,399.7,825.6,399.7z"/>
<path class="st1" d="M874.2,335.2c2.4,0,4.3,0.8,6,2.5c1.6,1.6,2.5,3.7,2.7,6.1V354h21.8c2.5,0,4.4,0.8,6,2.5c1.5,1.7,2.3,3.7,2.3,6
	c0,2.2-0.8,4.2-2.5,5.9c-1.7,1.7-3.6,2.6-5.7,2.6h-21.8v13.9c0,1.9,0.4,3.8,1.1,5.5c0.7,1.7,1.7,3.3,3,4.6c1.3,1.4,2.8,2.4,4.5,3.2
	c1.7,0.8,3.6,1.1,5.6,1.1c2.2,0,4.1-0.3,5.6-0.9c1.6-0.6,2.9-1.5,4.1-2.7c1.8-1.5,3.7-2.3,5.9-2.3c2.2,0,4.2,0.8,6,2.5
	c0.8,0.8,1.5,1.6,1.9,2.6c0.4,1,0.7,2,0.7,3c0,1.1-0.1,2.1-0.4,3.1c-0.3,1-0.9,1.9-1.6,2.7c-3,2.9-6.2,5.1-9.8,6.6
	c-3.5,1.5-7.3,2.3-11.4,2.3c-4.4,0-8.5-0.7-12.4-2.2c-3.9-1.5-7.3-3.6-10.3-6.3c-3-2.7-5.3-6-7-9.9c-1.7-3.8-2.6-8.1-2.7-12.9v-41.7
	c0-2.3,0.9-4.2,2.6-5.7C869.9,336,871.9,335.2,874.2,335.2z"/>
<path class="st2" d="M259.7,363.4c0-7.5-0.1-15,0-22.4c0.1-6.4,3.3-9.7,8.6-9.7c5.4,0.1,8.3,3.3,8.4,9.8c0.1,14.5-0.1,29,0.1,43.6
	c0.1,9.6,7.8,16.1,16.4,14.1c6.3-1.5,11-7.2,11-13.3c-0.1-6.5-5.3-12.1-12.4-13.6c-2.6-0.6-6.3-1-7.4-2.8c-1.5-2.5-2.5-7.1-1.2-9.2
	c1.5-2.5,5.8-4.5,8.8-4.5c14.8,0.2,27.4,12,28.6,26c1.4,17.1-7.9,30.5-23.6,33.9c-19.2,4.1-36.8-9.7-37.3-29.5
	C259.5,378.3,259.7,370.8,259.7,363.4"/>
<path class="st2" d="M629.9,372c-7.9,0-13.3,4.8-13.7,12.2c-0.4,7.3,4.9,13.6,12.3,14.2c4,0.3,8-0.1,12,0.3c4.3,0.3,7,2.8,7.4,7.2
	c0.4,4.6-1.6,7.8-6.1,9.1c-12.3,3.7-28.8-1.8-36.5-11.8c-9.3-12.3-7.5-30.3,4.1-40.6c11.4-10.1,29.2-10,40.3,0.2
	c5.1,4.7,5.3,9.1,0.4,14c-4.6,4.6-9.3,9.2-14.1,13.6c-4.2,3.9-8.9,4-12.3,0.6c-3.5-3.5-3.4-8.1,0.9-12.2c2.1-2,5-3.1,7.5-4.6
	C631.3,373.4,630.6,372.7,629.9,372"/>
</svg>
